<svg width="120" height="120" viewBox="0 0 120 120" fill="none" xmlns="http://www.w3.org/2000/svg">
<path d="M95.5672 70.7949C95.5454 70.9609 95.491 71.127 95.4038 71.2734C95.3058 71.6445 95.2622 72.0645 95.2622 72.5235C95.2622 72.5723 95.2731 72.6114 95.2731 72.6602V103.081C95.6979 104.038 96.2316 104.751 96.8633 105.2C97.4515 105.62 98.1703 105.825 99.0526 105.786C99.1179 105.776 99.1724 105.776 99.2377 105.776H108.964C108.986 105.776 109.018 105.776 109.04 105.776C110.554 105.844 111.654 105.473 112.384 104.721C113.212 103.872 113.691 102.485 113.854 100.639V100.62L116.817 73.168C116.817 73.129 116.817 73.0801 116.828 73.0411C117.035 71.4785 116.654 70.4629 115.793 69.8769C114.813 69.1933 113.168 68.9101 111.055 68.9199C111.001 68.9199 110.957 68.9296 110.903 68.9296H99.9457V68.9199C98.2684 68.9199 97.0485 69.2226 96.297 69.8281C95.9811 70.0918 95.7415 70.4043 95.5672 70.7949ZM54.1133 26.3507H68.9043C69.4816 26.3507 69.9499 26.7608 69.9499 27.2687V37.64C69.9499 38.1478 69.4816 38.5579 68.9043 38.5579H54.1133C53.5361 38.5579 53.0677 38.1478 53.0677 37.64V27.2687C53.0677 26.7608 53.5361 26.3507 54.1133 26.3507ZM67.8587 33.3723H62.3693V36.722H67.8587V33.3723ZM60.3216 33.3723H55.1589V36.722H60.3216V33.3723ZM55.1589 31.5363H60.3216V28.1866H55.1589V31.5363ZM62.3693 31.5363H67.8587V28.1866H62.3693V31.5363ZM25.7731 61.9861V37.806C24.0958 38.3822 22.5383 38.3919 21.2313 38.0013C20.2183 37.6986 19.3579 37.1419 18.7262 36.429C18.0944 35.7161 17.6914 34.8469 17.5716 33.8997C17.3865 32.425 17.8766 30.7355 19.2925 29.173C19.3579 29.0949 19.445 29.0167 19.5321 28.9581L60.3761 0.354062C60.8989 -0.0853998 61.7267 -0.124463 62.3039 0.285701L103.235 28.8117C103.3 28.8507 103.355 28.8996 103.409 28.9581C105.304 30.7844 105.773 32.8156 105.315 34.5344C105.087 35.3743 104.64 36.1458 104.019 36.7708C103.398 37.3958 102.603 37.8841 101.699 38.1771C100.262 38.6458 98.5624 38.6263 96.8415 37.8939V60.8728L93.8463 58.6951V36.302C93.8463 36.2141 93.8572 36.1263 93.879 36.0481L61.6504 13.5965L28.7248 36.0579C28.7574 36.1653 28.7792 36.2825 28.7792 36.3997V61.2635L25.7731 61.9861ZM21.5253 30.9504C20.7302 31.8781 20.4471 32.8059 20.5451 33.5969C20.5995 34.0461 20.7847 34.4465 21.0679 34.7688C21.3402 35.0813 21.7214 35.3255 22.1788 35.4622C22.963 35.6966 23.9651 35.638 25.1196 35.1497L60.7464 10.8426C61.1821 10.5496 61.7266 10.491 62.195 10.657C62.5 10.7644 62.8049 11.0086 63.0663 11.1844L97.201 34.9641C97.2119 34.9739 97.2336 34.9837 97.2445 34.9934C98.508 35.8138 99.7278 35.9407 100.665 35.638C101.1 35.5012 101.481 35.2669 101.775 34.9641C102.07 34.6614 102.287 34.3 102.396 33.8997C102.636 33.011 102.353 31.927 101.285 30.8527L61.389 3.04943L21.5253 30.9504ZM51.8152 47.2593H69.7538C70.5598 47.2593 71.2133 47.8648 71.2133 48.607V54.3297L68.3052 53.4215V49.9547H53.2638V53.4215L50.3557 54.3297V48.607C50.3557 47.8648 51.0092 47.2593 51.8152 47.2593ZM84.8498 104.458C84.6101 104.262 84.4468 103.999 84.3814 103.706L68.7518 78.4806C67.02 75.8829 65.4516 75.8146 63.9377 76.6251C62.8703 77.2013 61.7375 78.1291 60.6048 79.0568C59.9186 79.6134 59.2433 80.1799 58.6552 80.5998L55.9758 82.592L55.954 82.6018C54.0044 84.0178 51.7934 84.7698 49.7022 84.9261C48.3298 85.0237 46.9902 84.8675 45.7921 84.4671C44.5504 84.0471 43.4612 83.3733 42.6335 82.4553C41.7404 81.469 41.1631 80.2092 41.0215 78.715H41.0324C40.9997 78.3634 41.1195 77.9923 41.3918 77.6993L49.9309 68.5878C48.1338 68.5683 46.5436 68.7832 45.0514 69.2031C42.7751 69.8379 40.6512 70.9512 38.3204 72.3672C38.059 72.5528 37.7213 72.67 37.351 72.67H27.494V89.3304L27.5376 99.985H33.2557C33.8003 99.985 34.3231 100.239 34.6172 100.688L41.7186 111.802C42.7533 113.423 43.6682 114.819 44.8227 115.747C45.901 116.606 47.306 117.144 49.4735 117.202C50.2903 117.222 51.0637 117.095 51.8043 116.821C52.2617 116.655 52.7083 116.431 53.144 116.138L48.5368 108.413C48.1338 107.729 48.417 106.88 49.1794 106.518C49.9418 106.157 50.8894 106.411 51.2924 107.094L56.3026 115.493C58.1651 116.343 59.8533 116.606 61.3781 116.313C62.7723 116.04 64.0793 115.298 65.31 114.087L58.0997 103.93C57.6314 103.276 57.8492 102.417 58.5789 101.997C59.3087 101.577 60.2672 101.772 60.7355 102.426L68.3379 113.13C69.6667 113.618 70.9519 113.725 72.1718 113.423C73.3372 113.14 74.5026 112.466 75.668 111.382L68.7845 99.7506C68.3815 99.067 68.6647 98.2173 69.438 97.8462C70.2004 97.4849 71.148 97.7388 71.5619 98.4322L78.6851 110.464C79.6108 110.942 80.6891 111.069 81.7129 110.923C82.617 110.786 83.4774 110.444 84.1963 109.936C84.8824 109.448 85.4161 108.813 85.6775 108.091C85.9607 107.309 85.9389 106.401 85.4706 105.405L84.8498 104.458ZM86.9192 102.016H92.1363V72.67C92.1363 72.6309 92.1363 72.5918 92.1363 72.5625C92.1363 72.1035 92.169 71.6738 92.2343 71.2637L86.9301 68.0898C86.8974 68.0703 86.8756 68.0507 86.8429 68.0312C86.1568 67.6113 85.329 67.0937 84.4903 66.5761C81.4733 64.6815 78.3692 62.7284 75.0254 61.9471C73.2174 61.5174 71.1262 61.2342 69.0023 61.2049C67.1398 61.1756 65.2447 61.3318 63.4584 61.742C62.391 61.9861 61.3672 62.328 60.4088 62.7869C59.5592 63.1873 58.7641 63.6854 58.067 64.2713L54.5054 68.0703C54.3965 68.2558 54.244 68.4218 54.0589 68.5488L44.2346 79.008C44.3761 79.6721 44.6702 80.2385 45.0732 80.6877C45.5416 81.2053 46.1624 81.5959 46.8812 81.8303C47.6437 82.0842 48.515 82.1819 49.4408 82.1135C50.9439 82.0061 52.534 81.4494 53.9717 80.4142L56.6511 78.422C57.3373 77.9142 57.9145 77.4454 58.4809 76.9767C59.7444 75.9415 60.9969 74.9161 62.3148 74.213C65.3754 72.5821 68.4142 72.5235 71.4312 77.0548L71.4638 77.1036L86.9192 102.016ZM92.7136 104.829H88.5421C89.1084 106.303 89.0758 107.71 88.6292 108.95C88.1717 110.229 87.2677 111.313 86.1241 112.134C85.0022 112.934 83.6299 113.481 82.2031 113.686C80.798 113.891 79.3385 113.784 77.9771 113.276C76.3978 114.761 74.7314 115.698 72.9887 116.128C71.246 116.558 69.4707 116.47 67.6844 115.913C65.9853 117.602 64.1119 118.657 62.0425 119.058C59.9404 119.468 57.6967 119.185 55.3223 118.179C54.5817 118.696 53.8084 119.106 53.0024 119.409C51.8588 119.839 50.6607 120.034 49.3972 119.995C46.3911 119.917 44.3653 119.116 42.7533 117.827C41.2175 116.597 40.1828 115.015 39.0174 113.188L32.3626 102.788H27.1999C26.9058 104.135 26.383 105.268 25.5988 106.176C24.2809 107.7 22.3531 108.501 19.6846 108.452C19.652 108.452 19.6302 108.452 19.5975 108.452H10.7534C8.53151 108.774 6.61457 108.286 5.1224 106.733C3.79362 105.356 2.8896 103.13 2.50839 99.8482C2.4975 99.8092 2.4975 99.7701 2.48661 99.731L0.166674 73.9005C-0.290778 71.1074 0.210241 69.1445 1.46279 67.7968C2.72623 66.4394 4.62139 65.8241 6.9631 65.7265C7.02845 65.7167 7.09381 65.7167 7.15916 65.7167H19.0638V65.7265C21.3075 65.7069 23.2462 66.039 24.7166 66.8886C25.8929 67.5722 26.7425 68.539 27.1781 69.8476H36.8718C39.3115 68.373 41.5879 67.2206 44.1147 66.5077C46.5872 65.8144 49.2447 65.5702 52.4251 65.912L55.6709 62.4451C55.7253 62.3768 55.7907 62.3084 55.8669 62.2498C56.7927 61.4686 57.8274 60.8142 58.9384 60.2869C60.1038 59.7302 61.3672 59.3103 62.6633 59.0076C64.7328 58.529 66.922 58.3435 69.0459 58.3826C71.4529 58.4216 73.7947 58.7439 75.8205 59.2127C79.6871 60.1209 83.0308 62.2205 86.2766 64.2616C87.0063 64.7206 87.7143 65.1698 88.5747 65.6776C88.6074 65.6972 88.6292 65.7069 88.6619 65.7265L93.3671 68.539C93.6067 68.246 93.879 67.9726 94.184 67.7285C95.5345 66.6444 97.4624 66.1073 99.9348 66.1073V66.0976H110.892C110.935 66.0976 110.979 66.0976 111.023 66.1073C113.833 66.0976 116.109 66.5565 117.688 67.6503C119.453 68.8613 120.27 70.7168 119.921 73.3731C119.921 73.3926 119.91 73.4219 119.91 73.4415L116.959 100.864C116.741 103.315 116.011 105.239 114.726 106.567C113.353 107.983 111.447 108.686 108.942 108.589H99.205C97.5168 108.667 96.09 108.257 94.8919 107.397C94.0206 106.772 93.2908 105.913 92.7136 104.829ZM13.6724 94.1743C14.8378 94.1743 15.7854 95.0239 15.7854 96.0689C15.7854 97.1138 14.8378 97.9634 13.6724 97.9634C12.507 97.9634 11.5594 97.1138 11.5594 96.0689C11.5594 95.0239 12.507 94.1743 13.6724 94.1743ZM105.914 94.1743C107.08 94.1743 108.027 95.0239 108.027 96.0689C108.027 97.1138 107.08 97.9634 105.914 97.9634C104.749 97.9634 103.801 97.1138 103.801 96.0689C103.801 95.0239 104.749 94.1743 105.914 94.1743ZM24.3681 86.0784L24.3136 71.2539C24.3136 71.2246 24.3136 71.1953 24.3136 71.166C24.1393 70.2383 23.6928 69.623 23.0284 69.2324C22.1244 68.705 20.7629 68.5 19.0856 68.5195H19.0638V68.5293H7.17005C7.14826 68.5293 7.12648 68.5293 7.1047 68.5293C5.63432 68.5878 4.50158 68.9101 3.86986 69.5937C3.19457 70.3164 2.95495 71.5762 3.2817 73.5294C3.2926 73.5684 3.2926 73.6075 3.2926 73.6465L5.62342 99.5064V99.5553C5.93928 102.231 6.58189 103.95 7.4968 104.897C8.21565 105.649 9.2068 105.864 10.3831 105.669C10.4702 105.649 10.5683 105.649 10.6554 105.649V105.639H19.5866C19.6411 105.639 19.6955 105.639 19.75 105.649C21.3293 105.669 22.4184 105.249 23.1046 104.458C23.9106 103.53 24.2918 102.075 24.3572 100.2L24.3681 86.0784Z" fill="#194051"/>
</svg>
