<svg width="123" height="100" viewBox="0 0 123 100" fill="none" xmlns="http://www.w3.org/2000/svg">
<path d="M4.22 67.36H118.53V62.69C118.53 61.56 118.31 60.51 117.92 59.57C117.5 58.57 116.88 57.68 116.11 56.91C115.64 56.44 115.11 56.01 114.54 55.63C113.96 55.24 113.34 54.9 112.69 54.61C110.94 54.23 109.2 53.87 107.47 53.53C105.73 53.19 103.98 52.87 102.22 52.57C102.14 52.56 102.08 52.55 102 52.53C101.11 52.38 100.26 52.24 99.45 52.11C98.64 51.98 97.78 51.85 96.88 51.71H96.86C90.74 50.93 84.64 50.33 78.55 49.93C72.45 49.53 66.38 49.33 60.35 49.32C56.77 49.32 53.2 49.38 49.63 49.52C46.08 49.66 42.51 49.86 38.94 50.14H38.92C35.58 50.45 32.25 50.84 28.91 51.29C25.58 51.74 22.24 52.27 18.88 52.86L18.51 52.95C18.44 52.97 18.37 52.98 18.31 52.98C18.25 52.99 18.19 52.99 18.13 52.99C16.56 53.27 14.95 53.58 13.29 53.91C11.68 54.23 10.07 54.57 8.47 54.92C8.07 55.14 7.69 55.39 7.33 55.65C6.97 55.92 6.62 56.21 6.31 56.52C5.64 57.19 5.11 57.96 4.75 58.82C4.41 59.63 4.22 60.53 4.22 61.51V67.36ZM14.2 0H107.19C108.4 0 109.56 0.24 110.62 0.68C111.72 1.14 112.71 1.81 113.54 2.63C114.37 3.46 115.04 4.45 115.49 5.55C115.93 6.61 116.17 7.77 116.17 8.98V51.67C116.68 51.97 117.18 52.3 117.64 52.66C118.16 53.06 118.65 53.48 119.1 53.93C120.26 55.09 121.2 56.44 121.83 57.96C122.43 59.39 122.76 60.98 122.76 62.7V68.79C122.79 68.89 122.82 68.99 122.84 69.09V69.11C122.86 69.24 122.87 69.36 122.87 69.48C122.87 69.61 122.86 69.74 122.83 69.87C122.81 69.97 122.78 70.07 122.75 70.17V97.83C122.75 98.41 122.51 98.94 122.13 99.32C121.75 99.7 121.22 99.94 120.64 99.94H116.29C115.8 99.94 115.35 99.77 114.99 99.49C114.63 99.21 114.36 98.81 114.25 98.35C113.45 96.05 112.64 94.23 111.77 92.81C110.91 91.41 109.99 90.41 108.93 89.7C107.86 88.99 106.58 88.54 105.03 88.27C103.45 87.99 101.61 87.9 99.42 87.91L19.66 88.01H19.62C18.05 87.98 16.76 88.18 15.68 88.6C14.61 89.02 13.74 89.65 13.02 90.46C12.21 91.36 11.53 92.51 10.91 93.85C10.28 95.22 9.71 96.78 9.14 98.49C9 98.93 8.72 99.28 8.37 99.53C8.04 99.77 7.64 99.91 7.23 99.93C7.2 99.94 7.17 99.94 7.14 99.94H2.11C1.53 99.94 1 99.7 0.62 99.32C0.24 98.94 0 98.41 0 97.83V61.52C0 59.95 0.3 58.51 0.84 57.21C1.42 55.83 2.27 54.6 3.33 53.54C3.63 53.24 3.96 52.94 4.31 52.66C4.61 52.42 4.91 52.19 5.23 51.98V8.89C5.23 7.68 5.47 6.53 5.91 5.49C6.37 4.4 7.04 3.42 7.87 2.6C8.7 1.78 9.69 1.13 10.78 0.68C11.84 0.24 12.99 0 14.2 0ZM107.19 4.22H14.2C13.55 4.22 12.93 4.35 12.36 4.58C11.77 4.82 11.25 5.17 10.81 5.6C10.38 6.02 10.03 6.54 9.79 7.1C9.57 7.65 9.45 8.25 9.45 8.89V49.95C9.75 49.85 10.05 49.77 10.36 49.69C10.85 49.56 11.34 49.45 11.83 49.37C12.51 49.25 13.25 49.12 14.05 48.98C14.65 48.88 15.29 48.77 15.95 48.67V38.19C15.95 36.61 16.27 35.1 16.84 33.72C17.44 32.28 18.31 30.99 19.39 29.91C20.47 28.83 21.76 27.96 23.2 27.36C24.58 26.79 26.09 26.47 27.67 26.47H47.49C49.07 26.47 50.58 26.79 51.96 27.36C53.4 27.96 54.69 28.83 55.77 29.91C56.85 30.99 57.72 32.28 58.32 33.72C58.89 35.1 59.21 36.61 59.21 38.19V44.88C59.91 44.87 60.61 44.87 61.32 44.87V38.19C61.32 36.61 61.64 35.1 62.21 33.72C62.81 32.28 63.68 30.99 64.76 29.91C65.84 28.83 67.13 27.96 68.57 27.36C69.95 26.79 71.46 26.47 73.04 26.47H92.86C94.44 26.47 95.95 26.79 97.33 27.36C98.77 27.96 100.06 28.83 101.14 29.91C102.22 30.99 103.09 32.28 103.69 33.72C104.26 35.1 104.58 36.61 104.58 38.19V48.53C105.33 48.64 106.13 48.77 106.99 48.91C107.94 49.06 108.85 49.21 109.73 49.36C110.18 49.44 110.64 49.53 111.1 49.64C111.39 49.71 111.67 49.78 111.94 49.86V8.98C111.94 8.34 111.81 7.73 111.58 7.17C111.34 6.59 110.98 6.07 110.54 5.62C110.1 5.18 109.57 4.82 109 4.58C108.44 4.35 107.83 4.22 107.19 4.22ZM43.21 45.56C45.22 45.41 47.24 45.28 49.29 45.18C51.18 45.08 53.09 45.01 55 44.96V38.19C55 37.18 54.8 36.21 54.43 35.33C54.05 34.41 53.49 33.59 52.79 32.89C52.1 32.2 51.27 31.64 50.35 31.25C49.47 30.88 48.5 30.68 47.49 30.68H27.67C26.66 30.68 25.69 30.88 24.81 31.25C23.89 31.63 23.07 32.19 22.37 32.89C21.68 33.58 21.12 34.41 20.73 35.33C20.36 36.21 20.16 37.18 20.16 38.19V48C21.78 47.76 23.42 47.54 25.1 47.32C26.91 47.09 28.71 46.88 30.49 46.68C31.18 46.6 31.92 46.51 32.69 46.43C33.41 46.35 34.16 46.28 34.96 46.2C36.32 46.07 37.67 45.95 39 45.84C40.37 45.75 41.77 45.65 43.21 45.56ZM65.54 44.9C66.75 44.92 67.96 44.95 69.17 44.99C70.51 45.03 71.85 45.09 73.18 45.15H73.19C75.38 45.23 77.52 45.33 79.6 45.45C81.68 45.57 83.71 45.72 85.65 45.89C88.47 46.14 91.2 46.44 93.79 46.79C96.11 47.11 98.31 47.47 100.37 47.87V38.19C100.37 37.18 100.17 36.21 99.8 35.33C99.42 34.41 98.86 33.59 98.16 32.89C97.47 32.2 96.64 31.64 95.72 31.25C94.84 30.88 93.87 30.68 92.86 30.68H73.05C72.04 30.68 71.07 30.88 70.19 31.25C69.27 31.63 68.45 32.19 67.75 32.89C67.06 33.58 66.5 34.41 66.11 35.33C65.74 36.21 65.54 37.18 65.54 38.19V44.9ZM118.54 71.59H4.22V95.72H5.65C6.21 94.14 6.79 92.67 7.44 91.36C8.14 89.96 8.93 88.72 9.89 87.65C11.03 86.37 12.37 85.38 13.98 84.72C15.59 84.07 17.47 83.74 19.73 83.79L99.42 83.69C101.99 83.69 104.19 83.81 106.11 84.18C108.06 84.55 109.74 85.18 111.25 86.18C112.65 87.11 113.85 88.34 114.93 89.95C115.96 91.49 116.88 93.38 117.76 95.71H118.52V71.59H118.54Z" fill="#E3AC4A"/>
</svg>
