<svg width="120" height="120" viewBox="0 0 120 120" fill="none" xmlns="http://www.w3.org/2000/svg">
<path fill-rule="evenodd" clip-rule="evenodd" d="M8.98188 111.69V59.1936C7.15611 60.0995 5.44753 60.1176 4.02722 59.4956C2.92097 59.0125 1.98348 58.1488 1.29676 57.0346C0.612392 55.9173 0.174113 54.5615 0.0405195 53.0638C-0.161042 50.7447 0.378018 48.1206 1.91317 45.6566C1.99285 45.5358 2.07723 45.4181 2.18035 45.3154L46.688 0.555366C47.2645 -0.127072 48.1528 -0.199543 48.7926 0.443639L89.5104 41.2268C86.3487 44.2525 83.1659 46.2334 79.9784 47.408C78.2394 48.0482 76.4839 48.4619 74.7121 48.6823C65.4332 38.9108 50.4004 23.6133 48.0919 21.2972C44.5106 24.803 13.3483 55.718 13.3483 57.0225V111.711L8.98188 111.69ZM86.6136 81.3125C88.28 82.5505 89.3628 83.5772 90.6542 85.4101C94.001 78.468 97.6338 74.624 102.359 69.1645L102.818 68.935H107.988C101.058 78.8545 95.6838 87.0316 90.8721 98.9894C88.3667 92.0895 86.1331 87.3245 81.1386 82.9068L86.6136 81.3125ZM119.963 58.0552C120.682 93.3819 110.97 112.291 94.5682 120L94.5635 119.997L94.5588 120C78.1597 112.291 68.4449 93.3819 69.1644 58.0552C78.0167 58.6592 87.7386 55.5127 94.5588 47.9244C102.246 55.552 110.295 58.7135 119.963 58.0552ZM115.303 62.8081C115.892 91.6547 107.958 107.094 94.5682 113.39L94.5635 113.387L94.5588 113.39C81.1691 107.094 73.2378 91.6547 73.8238 62.8081C81.0519 63.3003 88.9901 60.7306 94.5588 54.5343C100.838 60.7638 107.41 63.3456 115.303 62.8081ZM49.409 55.9687V74.0472H61.9996V73.9959C61.9996 69.0135 60.4152 64.481 57.8652 61.1957C55.641 58.33 52.6856 56.4126 49.409 55.9687ZM49.409 77.8671V101.843H61.9996V77.8671H49.409ZM46.4466 101.834V77.8671H33.856V101.843H46.4466V101.834ZM46.4466 74.0472V55.9687C43.1606 56.4216 40.2122 58.33 37.9903 61.1957C35.4404 64.481 33.856 69.0135 33.856 73.9959V74.0472H46.4466ZM27.7646 109.803H68.084V113.62H27.7646V109.803ZM47.9278 52.0492C52.6153 52.0492 56.8738 54.5223 59.9559 58.4931C63.0449 62.4699 64.9551 67.9566 64.9551 73.9868V105.642H30.8912V73.9868C30.8912 67.9476 32.8107 62.4609 35.8927 58.4931C38.9817 54.5223 43.2403 52.0492 47.9278 52.0492ZM73.1394 3.56896L86.5315 4.27253V27.5781L73.1394 16.191V3.56896Z" fill="#194051"/>
</svg>
