<svg width="60" height="60" viewBox="0 0 60 60" fill="none" xmlns="http://www.w3.org/2000/svg">
<path d="M34.4812 2.02689C34.4812 0.910976 35.5688 0 36.9258 0C38.2816 0 39.3715 0.906237 39.3715 2.02689V10.8938C39.3715 12.0097 38.2816 12.9207 36.9258 12.9207C35.5688 12.9207 34.4812 12.0145 34.4812 10.8938V2.02689ZM41.373 37.7492H43.473C43.8563 37.7492 44.1715 38.0679 44.1715 38.4553V45.1887H49.8211C50.2078 45.1887 50.523 45.5085 50.523 45.8971V48.0199C50.523 48.412 50.2078 48.7283 49.8211 48.7283H40.6699V38.4553C40.6699 38.0679 40.9863 37.7492 41.373 37.7492ZM44.2758 28.2071C48.6094 28.2071 52.5445 29.9887 55.3887 32.8686C58.2375 35.7401 60 39.7145 60 44.1047C60 48.4902 58.2398 52.4693 55.3945 55.3444L55.3148 55.4202C52.4754 58.2491 48.5766 60 44.2758 60C39.9328 60 36.0012 58.2183 33.157 55.3432L33.082 55.2615C30.2812 52.39 28.5492 48.4464 28.5492 44.1047C28.5492 39.7145 30.3117 35.7401 33.157 32.865C36.0012 29.9887 39.9363 28.2071 44.2758 28.2071ZM53.5031 34.7711C51.1488 32.3888 47.8828 30.9116 44.2758 30.9116C40.6723 30.9116 37.4074 32.3888 35.0473 34.7758C32.6859 37.1616 31.2246 40.462 31.2246 44.1047C31.2246 47.7178 32.6602 50.9921 34.977 53.3673L35.0473 53.4324C37.4074 55.8183 40.6723 57.2967 44.2758 57.2967C47.8477 57.2967 51.0867 55.8443 53.441 53.5023L53.5043 53.4336C55.8656 51.0466 57.3258 47.7474 57.3258 44.1047C57.3258 40.462 55.8633 37.1616 53.5031 34.7711ZM6.65625 28.7011C6.51914 28.7011 6.39492 28.0851 6.39492 27.3316C6.39492 26.5747 6.50273 25.9646 6.65625 25.9646H13.3289C13.4672 25.9646 13.5914 26.5806 13.5914 27.3316C13.5914 28.0874 13.4836 28.7011 13.3289 28.7011H6.65625ZM17.2934 28.7011C17.1563 28.7011 17.032 28.0851 17.032 27.3316C17.032 26.5747 17.1398 25.9646 17.2934 25.9646H23.966C24.1043 25.9646 24.2285 26.5806 24.2285 27.3316C24.2285 28.0874 24.1207 28.7011 23.966 28.7011H17.2934ZM27.9305 28.7011C27.7945 28.7011 27.6703 28.0851 27.6703 27.3316C27.6703 26.5747 27.7781 25.9646 27.9305 25.9646H34.6031C34.7426 25.9646 34.8668 26.5747 34.8668 27.3257C34.1988 27.7463 33.5543 28.2071 32.9414 28.7011H27.9305ZM6.67266 36.548C6.53437 36.548 6.41016 35.932 6.41016 35.1774C6.41016 34.4216 6.51914 33.8056 6.67266 33.8056H13.3453C13.4836 33.8056 13.6055 34.4216 13.6055 35.1774C13.6055 35.932 13.4988 36.548 13.3453 36.548H6.67266ZM17.3098 36.548C17.1715 36.548 17.0473 35.932 17.0473 35.1774C17.0473 34.4216 17.1563 33.8056 17.3098 33.8056H23.9824C24.1207 33.8056 24.2438 34.4216 24.2438 35.1774C24.2438 35.932 24.1359 36.548 23.9824 36.548H17.3098ZM6.68672 44.3997C6.54844 44.3997 6.42422 43.7837 6.42422 43.0279C6.42422 42.2733 6.53438 41.6573 6.68672 41.6573H13.3594C13.4988 41.6573 13.6219 42.2733 13.6219 43.0279C13.6219 43.7837 13.5129 44.3997 13.3594 44.3997H6.68672ZM17.325 44.3997C17.1855 44.3997 17.0613 43.7837 17.0613 43.0279C17.0613 42.2733 17.1715 41.6573 17.325 41.6573H23.9977C24.1359 41.6573 24.2602 42.2733 24.2602 43.0279C24.2602 43.7837 24.15 44.3997 23.9977 44.3997H17.325ZM12.5191 2.02689C12.5191 0.910976 13.6055 0 14.9637 0C16.3195 0 17.4082 0.906237 17.4082 2.02689V10.8938C17.4082 12.0097 16.3137 12.9207 14.9637 12.9207C13.6055 12.9207 12.5191 12.0145 12.5191 10.8938V2.02689ZM2.6918 19.3852H49.2609V9.17609C49.2609 8.82782 49.1215 8.521 48.8988 8.29592C48.6762 8.07084 48.3609 7.93105 48.0293 7.93105H43.5645C42.8156 7.93105 42.2063 7.31505 42.2063 6.56045C42.2063 5.80466 42.8156 5.18865 43.5645 5.18865H48.0293C49.1215 5.18865 50.1035 5.63525 50.8207 6.36024C51.5379 7.08642 51.9785 8.07676 51.9785 9.18202V25.3889C51.0867 25.0785 50.1727 24.8285 49.2316 24.6437V22.111H49.2609H2.6918V48.5482C2.6918 48.8965 2.83008 49.2022 3.05273 49.4272C3.27656 49.6523 3.59297 49.7933 3.92461 49.7933H26.0555C26.3086 50.7422 26.625 51.6685 27.0059 52.5594H3.95039C2.86055 52.5594 1.87617 52.1151 1.15664 51.3878C0.439453 50.6687 0 49.6784 0 48.5719V9.18676C0 8.08624 0.439453 7.08997 1.15664 6.36498C1.87617 5.63881 2.85586 5.19457 3.95039 5.19457H8.71641C9.46406 5.19457 10.0723 5.81058 10.0723 6.564C10.0723 7.32097 9.46406 7.93698 8.71641 7.93698H3.95039C3.60352 7.93698 3.30117 8.07676 3.07852 8.30184C2.85586 8.52692 2.71641 8.84558 2.71641 9.18202V19.3887H2.6918V19.3852ZM21.3187 7.93105C20.5699 7.93105 19.9629 7.31505 19.9629 6.56045C19.9629 5.80466 20.5699 5.18865 21.3187 5.18865H30.4066C31.1555 5.18865 31.7625 5.80466 31.7625 6.56045C31.7625 7.31505 31.1555 7.93105 30.4066 7.93105H21.3187Z" fill="#E3AC4A"/>
</svg>
