<svg width="60" height="60" viewBox="0 0 60 60" fill="none" xmlns="http://www.w3.org/2000/svg">
<path fill-rule="evenodd" clip-rule="evenodd" d="M29.8973 0C41.0847 6.45292 51.192 9.50482 59.8649 8.78432C61.3803 36.6638 50.0654 53.1277 30.0118 60C10.6484 53.5682 -0.805579 37.8119 0.0442012 8.36021C10.2261 8.84524 20.2162 6.84305 29.8973 0ZM29.8689 22.8453C31.5942 21.2087 32.802 19.7934 35.4607 19.5158C40.4513 18.9932 45.0388 23.642 42.5191 28.2192C41.8019 29.5232 40.3418 31.072 38.7272 32.5938C36.9543 34.2633 34.9921 35.8999 33.617 37.1406L29.8689 40.5241L26.7737 37.8096C23.0475 34.5445 16.9729 30.4358 16.7733 25.3442C16.6317 21.778 19.7243 19.4935 23.2818 19.5357C26.4621 19.5732 27.7986 21.013 29.8689 22.8453ZM29.9166 4.64404C39.1946 9.99453 48.0993 13.0031 55.2928 12.4044C56.5495 35.5251 46.6418 49.6563 30.0144 55.3548C13.9536 50.0219 3.9313 36.4787 4.63559 12.0541C13.9549 12.4981 22.4951 9.89026 29.9166 4.64404Z" fill="#E3AC4A"/>
</svg>
