<svg width="123" height="103" viewBox="0 0 123 103" fill="none" xmlns="http://www.w3.org/2000/svg">
<path d="M0 0H119.01C119.48 0 119.93 0.09 120.34 0.27C120.92 0.52 122.01 1.61 122.24 2.18C122.41 2.59 122.51 3.04 122.51 3.51V27.23C122.51 27.7 122.42 28.15 122.24 28.57C122.06 29 121.8 29.38 121.48 29.71L121.44 29.74C121.12 30.05 120.75 30.3 120.34 30.47C119.93 30.64 119.48 30.74 119.01 30.74H70.58C70.43 30.74 70.32 30.62 70.32 30.48V4.13H32.58V11.02L44.87 25C45.22 25.4 45.38 25.9 45.35 26.4C45.32 26.89 45.1 27.37 44.7 27.73L44.68 27.74C44.5 27.89 44.31 28.01 44.1 28.08C43.89 28.16 43.66 28.2 43.44 28.2H6.52C5.99 28.2 5.5 27.98 5.16 27.63C4.81 27.28 4.59 26.8 4.59 26.27C4.59 25.99 4.65 25.73 4.76 25.49C4.87 25.24 5.03 25.02 5.23 24.84L17.88 11.01V4.13H0V0ZM31.55 58.58C32.69 58.58 33.62 59.51 33.62 60.65C33.62 61.79 32.69 62.72 31.55 62.72C30.41 62.72 29.48 61.79 29.48 60.65C29.48 59.51 30.41 58.58 31.55 58.58ZM18.35 58.58C19.49 58.58 20.42 59.51 20.42 60.65C20.42 61.79 19.49 62.72 18.35 62.72C17.21 62.72 16.28 61.79 16.28 60.65C16.28 59.51 17.21 58.58 18.35 58.58ZM32.62 47.47V49.66V52.56H119.39C121.31 52.56 122.89 54.14 122.89 56.06V98.68C122.89 100.6 121.32 102.18 119.4 102.18C80.8 102.18 42.22 102.18 3.61 102.18C1.7 102.18 0.11 100.59 0.11 98.68V56.06C0.11 54.13 1.68 52.56 3.61 52.56H17.29C17.29 50.86 17.29 49.17 17.29 47.47H21.84V49.66H19.76V52.56H30.16V49.66H28.08V47.47H32.62ZM119.02 56.42H89.4V98.32H119.03V56.42H119.02ZM85.54 56.42H46.77V65.75H85.54V56.42ZM42.91 56.42H3.96V98.32H42.91V56.42ZM46.77 98.31H85.54V69.61H46.77V98.31ZM94 58.58C94.28 58.58 94.55 58.64 94.79 58.74L94.8 58.75C95.05 58.85 95.27 59.01 95.46 59.19C95.65 59.38 95.8 59.61 95.91 59.86C96.01 60.1 96.07 60.37 96.07 60.65C96.07 60.93 96.01 61.19 95.91 61.44C95.8 61.69 95.65 61.92 95.46 62.11L95.44 62.12C95.25 62.3 95.03 62.45 94.78 62.55C94.54 62.65 94.27 62.71 93.99 62.71C93.71 62.71 93.44 62.65 93.2 62.55C92.96 62.45 92.74 62.3 92.55 62.12L92.52 62.1C92.33 61.91 92.18 61.68 92.08 61.43L92.07 61.42C91.97 61.18 91.92 60.92 91.92 60.64C91.92 60.36 91.98 60.09 92.08 59.85C92.18 59.6 92.34 59.37 92.53 59.18C92.72 58.99 92.95 58.84 93.2 58.73L93.21 58.72C93.47 58.63 93.73 58.58 94 58.58ZM74.31 4.13H74.18V26.86H118.67V4.13H74.31ZM78.11 6.66C78.3 6.48 78.52 6.33 78.77 6.23C79.01 6.13 79.28 6.07 79.56 6.07C79.84 6.07 80.11 6.13 80.35 6.23L80.36 6.24C80.61 6.34 80.83 6.5 81.02 6.68C81.21 6.87 81.36 7.1 81.47 7.35C81.57 7.59 81.63 7.86 81.63 8.14C81.63 8.42 81.57 8.69 81.47 8.93L81.46 8.94C81.36 9.18 81.21 9.4 81.03 9.58L81 9.61C80.81 9.79 80.59 9.94 80.35 10.04C80.11 10.14 79.84 10.2 79.56 10.2C79.28 10.2 79.01 10.14 78.77 10.04C78.52 9.94 78.29 9.78 78.1 9.59C77.91 9.4 77.76 9.17 77.65 8.92C77.55 8.68 77.49 8.41 77.49 8.13C77.49 7.85 77.55 7.59 77.65 7.34C77.76 7.09 77.91 6.86 78.1 6.67L78.11 6.66Z" fill="#E3AC4A"/>
</svg>
