<svg width="60" height="60" viewBox="0 0 60 60" fill="none" xmlns="http://www.w3.org/2000/svg">
<path d="M29.6793 8.37023L29.7233 8.32029C33.117 4.22532 35.9101 0.862791 41.6135 0.113712C44.7942 -0.28698 48.0085 0.376424 50.862 2.02248C53.2611 3.38092 55.3453 5.36151 56.9463 7.80426C58.5648 10.2544 59.5856 13.1465 59.9055 16.1884C60.1542 18.6688 59.9106 21.1811 59.1925 23.5405H56.0771C56.914 21.3465 57.2338 18.9427 57.0049 16.5657C56.7394 14.1041 55.9111 11.7644 54.6025 9.77961C53.273 7.76005 51.5476 6.12048 49.5631 4.99105C47.2124 3.6366 44.5655 3.08904 41.9456 3.41521C37.3018 4.02002 34.8407 6.98859 31.8474 10.5897L30.7634 11.8881C30.493 12.201 30.1249 12.3799 29.7391 12.3862C29.3532 12.3924 28.9808 12.2254 28.7027 11.9214L27.6529 10.7562C23.9808 6.65012 21.2121 3.54283 15.494 3.47625C15.2645 3.47625 15.0301 3.47625 14.7811 3.47625C11.7073 3.55748 8.76137 4.89057 6.4799 7.23274C5.35153 8.44055 4.45403 9.89937 3.84329 11.5184C3.23255 13.1374 2.92164 14.8819 2.92992 16.6434C2.92992 16.8875 2.92992 17.1483 2.92992 17.4202C3.01049 19.5138 3.38298 21.5796 4.03349 23.5405H0.942513C0.389998 21.5933 0.0729529 19.5698 8.26428e-05 17.5256C8.26428e-05 17.226 8.26428e-05 16.9153 8.26428e-05 16.5935C-0.00655919 14.3869 0.387209 12.2025 1.1568 10.1766C1.92639 8.15076 3.05528 6.32693 4.47297 4.81904C7.27008 1.92209 10.8949 0.272523 14.6786 0.174748C14.9471 0.174748 15.2352 0.174748 15.5282 0.174748C22.4182 0.274625 25.5434 3.75368 29.6891 8.38133L29.6793 8.37023ZM0.976695 28.6564H14.9374L18.1065 22.8358L23.6976 32.0522L29.2984 19.1625L35.3388 32.3796L38.2003 29.0504H59.0363V32.3796H39.4308L34.6161 37.9949L29.357 26.5146L24.1175 38.5886L18.2578 28.895L16.5781 31.9856H0.976695V28.6564ZM50.0173 37.9727L49.8757 38.1447C47.4341 41.0079 44.8559 43.8211 42.5511 46.3513C41.1936 47.8273 39.924 49.2089 38.8497 50.4185L30.7634 59.5296C30.49 59.8313 30.1239 60 29.7428 60C29.3617 60 28.9956 59.8313 28.7222 59.5296L22.0276 52.2385C20.8068 50.9068 19.3907 49.4364 17.916 47.9105C14.9569 44.8421 11.7683 41.5406 8.91655 37.9727H12.9402C15.2059 40.6084 17.6133 43.1053 19.8839 45.4524C21.3488 46.9506 22.721 48.3933 24.0492 49.847L29.7037 56.0394L36.7744 48.0659C37.8877 46.8119 39.1525 45.4302 40.5051 43.9598C42.2288 42.0843 44.099 40.0757 45.9253 37.9727H50.0173Z" fill="#E3AC4A"/>
</svg>
