<svg width="60" height="60" viewBox="0 0 60 60" fill="none" xmlns="http://www.w3.org/2000/svg">
<path fill-rule="evenodd" clip-rule="evenodd" d="M22.1821 10.8946C22.1539 10.8228 22.1358 10.7436 22.1289 10.6617C22.1219 10.5798 22.1263 10.4968 22.1417 10.4173C22.1571 10.3378 22.1833 10.2635 22.2187 10.1986C22.2541 10.1336 22.2981 10.0793 22.3481 10.0388C22.3981 9.99825 22.4531 9.97226 22.5101 9.96231C22.5671 9.95236 22.6249 9.95864 22.6802 9.98079C22.7355 10.0029 22.7872 10.0405 22.8324 10.0914C22.8776 10.1423 22.9154 10.2054 22.9436 10.2773L23.4904 11.6803C23.5467 11.8208 23.5619 11.9876 23.5326 12.1442C23.5033 12.3007 23.4319 12.4342 23.3341 12.5151C23.2364 12.596 23.1203 12.6178 23.0113 12.5757C22.9024 12.5336 22.8096 12.4311 22.7532 12.2906L22.2065 10.9297L22.1821 10.8946ZM46.268 60L41.074 35.0755H42.4213L50.2807 59.9719H46.268V60ZM50.2807 35.0755V25.2123H44.6375C43.6905 25.3386 43.5001 24.2583 43.9053 23.3674L47.5128 17.2853L47.4103 17.138H45.4577C44.7547 17.2853 44.4813 16.198 44.9207 15.4263L48.826 8.85324H47.6934C46.9856 8.85324 46.8099 7.94128 47.2638 7.05037L50.8079 1.00339C51.052 0.589505 51.2961 -0.0137898 51.7305 0.000240347C52.165 0.0142705 52.3114 0.505324 52.5262 0.870107L56.2948 7.18366C56.3917 7.34456 56.4524 7.5439 56.4689 7.75537C56.4853 7.96684 56.4567 8.1805 56.3869 8.36817C56.3172 8.55584 56.2094 8.70869 56.0779 8.80656C55.9464 8.90443 55.7974 8.94272 55.6505 8.91637H54.6253L58.4867 15.4334C58.588 15.564 58.663 15.7315 58.7036 15.9182C58.7443 16.1049 58.7491 16.3039 58.7176 16.4943C58.6861 16.6846 58.6195 16.8592 58.5247 16.9997C58.4299 17.1401 58.3106 17.2412 58.1792 17.2923H55.9336L59.3019 22.9675L59.6729 23.5919C59.7459 23.7366 59.7914 23.906 59.8051 24.0837C59.8187 24.2613 59.8 24.4409 59.7508 24.605C59.7016 24.7691 59.6235 24.912 59.5243 25.0197C59.4251 25.1274 59.3081 25.1962 59.1848 25.2194H53.1364V35.0755H59.9707V40.1264H46.9026L45.4381 35.0755H50.2807ZM8.14254 31.7153V34.2127H7.42983V33.42H7.59092V31.7153H8.14254ZM4.01757 28.762C3.78379 28.8594 3.54304 28.9183 3.29998 28.9373C2.77349 28.9868 2.2486 28.8111 1.79155 28.4323C1.3373 28.0437 0.97759 27.463 0.761533 26.7697C0.374468 25.3874 0.357079 23.8481 0.712717 22.4484C0.208813 21.4566 -0.0239783 20.2333 0.0585794 19.011C0.144243 18.1092 0.426176 17.2695 0.864047 16.6119C1.3315 15.9184 1.9172 15.4129 2.56285 15.1457C3.84157 14.6498 5.20177 14.8316 6.39492 15.6578C6.54137 15.4895 6.68782 15.3422 6.82939 15.2019C7.57298 14.4308 8.49202 14.0925 9.402 14.2548C10.4044 14.5471 11.2953 15.3648 11.9014 16.5488C12.0754 16.8423 12.2384 17.1491 12.3896 17.4677C13.2005 17.3987 14.0049 17.7142 14.679 18.3657C15.0355 18.7268 15.3091 19.2323 15.465 19.8178C15.6097 20.4152 15.6097 21.0653 15.465 21.6627C15.1835 22.7132 14.6688 23.6009 14.0005 24.1881C13.9552 25.117 13.7721 26.0211 13.4635 26.8398C13.2322 27.4474 12.8758 27.9375 12.4433 28.2428C12.008 28.5273 11.5133 28.5599 11.0618 28.334C10.9114 28.2649 10.766 28.1757 10.6273 28.0675L10.3393 29.0426C9.62167 31.4347 9.36295 32.2905 9.27996 35.0615H15.7774L14.3129 40.1123H0V35.0755H5.73102C5.70661 32.4379 5.54552 32.0941 4.67659 30.2211C4.49109 29.8142 4.2763 29.3442 4.01757 28.7479V28.762ZM4.53991 28.4814L5.13546 29.7862C6.11179 31.8486 6.25824 32.2064 6.28265 35.0825H8.72346C8.81133 32.1432 9.07493 31.2593 9.8267 28.769L10.1538 27.6746C10.0903 27.6045 10.0268 27.5343 9.96827 27.4572C9.85529 27.6296 9.73462 27.7913 9.60703 27.9412C9.1401 28.5531 8.53041 28.8911 7.89846 28.8882C7.27019 28.8227 6.67774 28.4429 6.22407 27.8149C6.08738 27.6396 5.9507 27.4501 5.81401 27.2397C5.43909 27.7485 5.00869 28.1656 4.53991 28.4743V28.4814ZM6.19966 28.6497L7.32243 31.3154L6.83427 31.7153L5.7115 29.0566L6.19966 28.6497ZM19.5265 59.979L22.7776 35.0755H21.1716L15.9873 59.979H19.5265ZM14.2787 59.979L19.4679 35.0755H18.1206L10.2758 59.979H14.2787ZM31.1008 59.979V35.0755H32.7069L34.352 59.979H31.1008ZM36.124 59.979L34.3324 35.0755H35.9629L39.38 59.993L36.124 59.979ZM41.0056 59.979L37.7642 35.0755H39.3654L44.5545 59.979H41.0056ZM29.4313 59.979V35.0755H27.8252L26.185 59.979H29.4313ZM24.4081 59.979L26.2045 35.0755H24.5741L21.1569 59.993L24.4081 59.979ZM0 52.3887H10.4418L8.04491 59.979H0V52.3887ZM50.7689 52.3887H60V59.979H53.1657L50.7689 52.3887ZM0 43.676H13.1804L11.5548 48.832H0V43.676ZM48.0205 43.676H59.9854V48.832H49.6412L48.0205 43.676ZM25.5895 12.922C26.4724 12.9237 27.3277 13.3653 28.0095 14.1714C28.6914 14.9776 29.1577 16.0985 29.329 17.3432C29.5004 18.5879 29.3661 19.8795 28.9492 20.998C28.5323 22.1165 27.8585 22.9928 27.0424 23.4775C26.2264 23.9622 25.3188 24.0254 24.4739 23.6564C23.6291 23.2874 22.8995 22.5089 22.4092 21.4536C21.919 20.3983 21.6984 19.1314 21.7852 17.8687C21.872 16.606 22.2606 15.4256 22.885 14.5284C23.2403 14.0185 23.662 13.6142 24.126 13.3385C24.5901 13.0629 25.0873 12.9214 25.5895 12.922ZM27.713 15.3562C27.2931 14.7525 26.758 14.3413 26.1755 14.1747C25.593 14.008 24.9891 14.0935 24.4404 14.4202C23.8917 14.7469 23.4227 15.3001 23.0928 16.0099C22.7629 16.7197 22.587 17.5542 22.5873 18.4077C22.5873 19.552 22.9036 20.6493 23.4666 21.4584C24.0296 22.2675 24.7932 22.722 25.5895 22.722C26.3857 22.722 27.1493 22.2675 27.7123 21.4584C28.2753 20.6493 28.5917 19.552 28.5917 18.4077C28.594 17.8406 28.5174 17.2786 28.3666 16.7546C28.2157 16.2306 27.9935 15.7551 27.713 15.3562ZM25.2721 9.44952C25.2657 9.3634 25.272 9.2763 25.2905 9.19389C25.3091 9.11148 25.3395 9.0356 25.3798 8.97118C25.4201 8.90676 25.4693 8.85524 25.5244 8.81997C25.5794 8.78471 25.639 8.76648 25.6993 8.76648C25.7596 8.76648 25.8192 8.78471 25.8742 8.81997C25.9293 8.85524 25.9785 8.90676 26.0188 8.97118C26.0591 9.0356 26.0895 9.11148 26.108 9.19389C26.1266 9.2763 26.1328 9.3634 26.1264 9.44952V11.0279C26.1328 11.114 26.1266 11.2011 26.108 11.2835C26.0895 11.3659 26.0591 11.4418 26.0188 11.5062C25.9785 11.5707 25.9293 11.6222 25.8742 11.6575C25.8192 11.6927 25.7596 11.7109 25.6993 11.7109C25.639 11.7109 25.5794 11.6927 25.5244 11.6575C25.4693 11.6222 25.4201 11.5707 25.3798 11.5062C25.3395 11.4418 25.3091 11.3659 25.2905 11.2835C25.272 11.2011 25.2657 11.114 25.2721 11.0279V9.44952ZM28.4354 10.4036C28.4925 10.2643 28.5854 10.1628 28.694 10.1208C28.8026 10.0788 28.9183 10.0998 29.0164 10.1791C29.0648 10.2191 29.1073 10.2724 29.1414 10.336C29.1755 10.3997 29.2005 10.4723 29.215 10.5499C29.2295 10.6274 29.2333 10.7083 29.226 10.788C29.2187 10.8676 29.2005 10.9444 29.1726 11.0139L28.6063 12.3818C28.5445 12.5066 28.4526 12.5938 28.3485 12.6266C28.2444 12.6595 28.1355 12.6355 28.043 12.5594C27.9505 12.4834 27.881 12.3606 27.848 12.215C27.8149 12.0694 27.8208 11.9113 27.8643 11.7715L28.4159 10.3685L28.4354 10.4036ZM30.8421 13.5042C30.8905 13.464 30.9439 13.4379 30.9993 13.4275C31.0547 13.417 31.111 13.4223 31.165 13.4432C31.2189 13.464 31.2695 13.5 31.3138 13.549C31.3581 13.598 31.3952 13.6591 31.423 13.7287C31.4797 13.8702 31.4951 14.0382 31.4659 14.196C31.4366 14.3537 31.365 14.4884 31.2668 14.5705L30.2905 15.3562C30.2421 15.3963 30.1886 15.4222 30.1332 15.4327C30.0779 15.4431 30.0216 15.4377 29.9676 15.4168C29.8587 15.3747 29.7659 15.2722 29.7095 15.1317C29.6532 14.9912 29.638 14.8244 29.6673 14.6678C29.6966 14.5113 29.768 14.3779 29.8658 14.2969L30.8421 13.5042ZM31.8477 17.9237C31.9616 17.9237 32.0709 17.9887 32.1515 18.1045C32.232 18.2203 32.2773 18.3773 32.2773 18.541C32.2773 18.7048 32.232 18.8618 32.1515 18.9775C32.0709 19.0933 31.9616 19.1584 31.8477 19.1584H30.7542C30.6403 19.1584 30.531 19.0933 30.4504 18.9775C30.3699 18.8618 30.3246 18.7048 30.3246 18.541C30.3246 18.3773 30.3699 18.2203 30.4504 18.1045C30.531 17.9887 30.6403 17.9237 30.7542 17.9237H31.8477ZM31.1594 22.4484C31.2545 22.5296 31.3241 22.6604 31.3537 22.8136C31.3834 22.9667 31.3708 23.1303 31.3186 23.2705C31.2663 23.4106 31.1785 23.5164 31.0734 23.5658C30.9683 23.6152 30.854 23.6044 30.7542 23.5357L29.7779 22.743C29.6801 22.6612 29.609 22.5269 29.5802 22.3697C29.5513 22.2125 29.5671 22.0452 29.6241 21.9047C29.6811 21.7643 29.7745 21.6621 29.8839 21.6206C29.9933 21.5792 30.1097 21.6019 30.2075 21.6838L31.1594 22.4484ZM29.0017 25.9559C29.0297 26.0255 29.0478 26.1022 29.0551 26.1819C29.0624 26.2615 29.0587 26.3424 29.0442 26.4199C29.0297 26.4975 29.0046 26.5702 28.9706 26.6338C28.9365 26.6974 28.894 26.7507 28.8455 26.7907C28.7973 26.8319 28.7438 26.8587 28.6883 26.8697C28.6327 26.8807 28.5762 26.8756 28.5221 26.8546C28.4679 26.8337 28.4172 26.7974 28.373 26.7479C28.3288 26.6984 28.2919 26.6366 28.2646 26.5663L27.713 25.2053C27.685 25.1358 27.6668 25.059 27.6595 24.9794C27.6523 24.8998 27.656 24.8189 27.6705 24.7413C27.685 24.6638 27.71 24.5911 27.7441 24.5275C27.7782 24.4639 27.8207 24.4105 27.8692 24.3705C27.9172 24.3284 27.9707 24.3007 28.0264 24.2892C28.0821 24.2777 28.1388 24.2826 28.1932 24.3036C28.2475 24.3246 28.2983 24.3613 28.3425 24.4114C28.3866 24.4615 28.4232 24.524 28.4501 24.595L29.0017 25.9559ZM25.9312 27.359C25.9312 27.5227 25.8859 27.6797 25.8053 27.7955C25.7248 27.9112 25.6155 27.9763 25.5016 27.9763C25.3877 27.9763 25.2784 27.9112 25.1978 27.7955C25.1173 27.6797 25.072 27.5227 25.072 27.359V25.8016C25.072 25.6379 25.1173 25.4809 25.1978 25.3651C25.2784 25.2493 25.3877 25.1843 25.5016 25.1843C25.6155 25.1843 25.7248 25.2493 25.8053 25.3651C25.8859 25.4809 25.9312 25.6379 25.9312 25.8016V27.359ZM22.7679 26.3979C22.7405 26.4681 22.7036 26.5299 22.6596 26.5796C22.6155 26.6293 22.565 26.6659 22.511 26.6874C22.457 26.709 22.4005 26.7149 22.3449 26.7049C22.2893 26.695 22.2356 26.6693 22.187 26.6294C22.1379 26.5893 22.0949 26.5358 22.0602 26.4718C22.0256 26.4078 22 26.3346 21.9851 26.2564C21.9701 26.1783 21.966 26.0966 21.973 26.0162C21.98 25.9357 21.998 25.8581 22.0259 25.7876L22.5775 24.4267C22.6338 24.2862 22.7267 24.1836 22.8356 24.1415C22.9445 24.0994 23.0607 24.1212 23.1584 24.2022C23.2562 24.2831 23.3275 24.4165 23.3568 24.5731C23.3861 24.7296 23.3709 24.8965 23.3146 25.037L22.7679 26.3979ZM20.3612 23.2972C20.3128 23.3373 20.2594 23.3633 20.204 23.3737C20.1486 23.3841 20.0924 23.3787 20.0384 23.3579C19.9845 23.337 19.9339 23.3011 19.8896 23.2522C19.8454 23.2033 19.8082 23.1423 19.7803 23.0728C19.7524 23.0032 19.7344 22.9264 19.7271 22.8468C19.7199 22.7672 19.7236 22.6864 19.7381 22.6089C19.7526 22.5313 19.7776 22.4587 19.8117 22.3951C19.8457 22.3314 19.8881 22.278 19.9365 22.238L20.8836 21.4523C20.9813 21.3713 21.0974 21.3495 21.2064 21.3916C21.3153 21.4337 21.4082 21.5363 21.4645 21.6768C21.5208 21.8172 21.536 21.9841 21.5067 22.1406C21.4774 22.2972 21.406 22.4306 21.3083 22.5115L20.3612 23.2972ZM19.3556 18.8848C19.2957 18.894 19.2351 18.885 19.1777 18.8583C19.1204 18.8317 19.0676 18.788 19.0228 18.7301C18.9779 18.6722 18.9421 18.6014 18.9175 18.5223C18.893 18.4432 18.8803 18.3576 18.8803 18.2709C18.8803 18.1843 18.893 18.0987 18.9175 18.0196C18.9421 17.9405 18.9779 17.8697 19.0228 17.8118C19.0676 17.7539 19.1204 17.7102 19.1777 17.6836C19.2351 17.6569 19.2957 17.6479 19.3556 17.6571H20.454C20.5594 17.6733 20.6569 17.745 20.7278 17.8583C20.7986 17.9716 20.8378 18.1186 20.8378 18.2709C20.8378 18.4233 20.7986 18.5703 20.7278 18.6836C20.6569 18.7969 20.5594 18.8685 20.454 18.8848H19.3556ZM20.0146 14.353C19.9562 14.3213 19.9034 14.2715 19.8599 14.2071C19.8164 14.1427 19.7834 14.0654 19.7631 13.9805C19.7428 13.8957 19.7357 13.8054 19.7425 13.7162C19.7492 13.627 19.7696 13.541 19.8021 13.4644C19.8346 13.3878 19.8784 13.3224 19.9305 13.273C19.9826 13.2235 20.0416 13.1911 20.1034 13.1782C20.1652 13.1652 20.2282 13.172 20.288 13.1981C20.3477 13.2241 20.4027 13.2688 20.4491 13.3288L21.3961 14.1145C21.4607 14.2102 21.502 14.3333 21.5138 14.4655C21.5257 14.5976 21.5074 14.7318 21.4618 14.8478C21.4162 14.9638 21.3457 15.0556 21.2609 15.1093C21.176 15.163 21.0813 15.1758 20.991 15.1457L20.0146 14.353Z" fill="#E3AC4A"/>
</svg>
