<svg width="128" height="96" viewBox="0 0 128 96" fill="none" xmlns="http://www.w3.org/2000/svg">
<path d="M98.97 22.3262L98.91 22.2462C98.6 21.7962 97.98 21.6962 97.54 22.0062L89.94 27.3262C89.49 27.6362 89.39 28.2562 89.7 28.6962L89.76 28.7762C90.07 29.2262 90.69 29.3262 91.13 29.0162L98.73 23.6962C99.17 23.3862 99.28 22.7662 98.97 22.3262ZM119.01 52.3262L114.89 71.5462C113.87 76.3262 111.56 79.9762 108.28 82.4762C106.01 84.2062 103.3 85.3562 100.25 85.9262L102.95 91.7062C103.53 92.9562 102.99 94.4462 101.74 95.0262C100.49 95.6062 99 95.0662 98.42 93.8162L94.92 86.3362H35.1L31.6 93.8162C31.02 95.0662 29.53 95.6062 28.28 95.0262C27.03 94.4462 26.49 92.9562 27.07 91.7062L29.62 86.2462C25.72 85.9062 22.52 84.6562 19.94 82.5162C16.93 80.0162 14.87 76.3862 13.64 71.6562L8.57 52.3262H4.61C3.35 52.3262 2.2 51.8062 1.36 50.9762V50.9662L1.35 50.9762C0.52 50.1362 0 48.9862 0 47.7162V43.5262C0 42.2562 0.52 41.1062 1.35 40.2662C1.41 40.2062 1.48 40.1362 1.55 40.0862C2.36 39.3562 3.43 38.9162 4.6 38.9162H5.21C5.38 37.0962 6.08 35.3762 7.16 33.8762C8.26 32.3362 9.78 31.0262 11.51 30.1262C13.25 29.2162 15.22 28.7062 17.21 28.7662C18.96 28.8262 20.7 29.3062 22.31 30.3262C23.01 29.3062 23.88 28.3962 24.88 27.6462C26.84 26.1762 29.29 25.2962 31.94 25.2962C34.14 25.2962 36.2 25.8962 37.95 26.9362C39.32 27.7462 40.5 28.8362 41.42 30.1162C44.21 30.3362 46.73 31.5262 48.62 33.3462C50.17 34.8462 51.29 36.7662 51.78 38.9062H119.03V14.1062C117.57 6.9362 113.43 4.9862 107.9 5.7762C110.39 10.1162 110.07 14.5262 106.54 19.0262C106.99 19.7562 106.95 20.5562 106.46 21.4062L105.36 22.6762C104.92 23.1262 104.37 23.1662 103.66 22.5962L86.76 5.5262C86.3 4.9762 86.39 4.4962 86.93 4.0762C88.13 2.6062 88.28 2.3562 90.41 2.7162C95.15 -0.363803 99.66 -0.913803 103.91 1.5262C114.58 -2.8538 123.66 2.6462 124.89 13.8462V39.2062C125.52 39.4362 126.08 39.8062 126.54 40.2662C127.37 41.0962 127.89 42.2562 127.89 43.5262V47.7162C127.89 48.9862 127.37 50.1362 126.54 50.9762C125.71 51.8062 124.55 52.3262 123.29 52.3262H119.01ZM89.4 14.1062L89.34 14.0262C89.03 13.5762 88.41 13.4762 87.97 13.7862L80.37 19.1062C79.92 19.4162 79.82 20.0362 80.13 20.4762L80.19 20.5562C80.5 21.0062 81.12 21.1062 81.56 20.7962L89.16 15.4762C89.61 15.1662 89.71 14.5462 89.4 14.1062ZM85.03 9.7062L84.97 9.6262C84.66 9.1762 84.04 9.0762 83.6 9.3862L76 14.7062C75.55 15.0162 75.45 15.6362 75.76 16.0762L75.82 16.1562C76.13 16.6062 76.75 16.7062 77.19 16.3962L84.79 11.0762C85.23 10.7662 85.34 10.1462 85.03 9.7062ZM93.76 18.3562L93.7 18.2762C93.39 17.8262 92.77 17.7262 92.33 18.0362L84.73 23.3562C84.28 23.6662 84.18 24.2862 84.49 24.7262L84.55 24.8062C84.86 25.2562 85.48 25.3562 85.92 25.0462L93.53 19.7262C93.96 19.4162 94.07 18.8062 93.76 18.3562ZM10.29 38.9162H46.54C46.22 38.1762 45.75 37.5162 45.17 36.9662C43.98 35.8162 42.33 35.1062 40.5 35.1062C40.22 35.1062 40.52 35.0962 40.33 35.0962L40.16 35.1062C39.22 35.1462 38.29 34.6562 37.83 33.7662C37.29 32.7362 36.45 31.8662 35.42 31.2562C34.42 30.6662 33.23 30.3162 31.96 30.3162C30.42 30.3162 29.01 30.8162 27.9 31.6462C26.79 32.4862 25.96 33.6562 25.6 34.9962C25.48 35.5062 25.19 35.9862 24.75 36.3462C23.68 37.2162 22.1 37.0562 21.23 35.9862C20 34.4762 18.52 33.8162 17.07 33.7662C15.97 33.7262 14.85 34.0262 13.84 34.5562C12.82 35.0962 11.92 35.8762 11.25 36.7962C10.78 37.4562 10.44 38.1762 10.29 38.9162ZM8.5 43.9362C8.1 44.0362 7.7 44.0262 7.32 43.9362H5.02V47.2962H122.88V43.9362H8.5ZM13.74 52.3262L18.48 70.3962C19.44 74.0762 20.96 76.8462 23.14 78.6462C25.27 80.4162 28.14 81.3162 31.87 81.3162H95.62C99.48 81.3162 102.77 80.3662 105.23 78.4962C107.57 76.7162 109.22 74.0462 109.98 70.5062L113.88 52.3262H13.74Z" fill="#E3AC4A"/>
</svg>
