<svg width="123" height="110" viewBox="0 0 123 110" fill="none" xmlns="http://www.w3.org/2000/svg">
<path d="M33.1415 106.13H30.1415V109.29H121.461C121.651 109.291 121.84 109.255 122.016 109.183C122.191 109.112 122.351 109.006 122.486 108.872C122.621 108.738 122.728 108.579 122.801 108.403C122.874 108.228 122.911 108.04 122.911 107.85V32.8501C122.91 32.2909 122.687 31.7549 122.291 31.3601C121.894 30.9608 121.355 30.7344 120.791 30.7301H89.3915V2.54005C89.3919 1.92041 89.1641 1.32232 88.7515 0.860052L88.6415 0.740052C88.4055 0.503539 88.1248 0.316316 87.8158 0.189275C87.5068 0.0622346 87.1756 -0.00208725 86.8415 5.16424e-05H32.5115C32.1775 -0.000986217 31.8466 0.0638387 31.5378 0.190817C31.2289 0.317795 30.9481 0.504433 30.7115 0.740052C30.2933 1.16173 30.0382 1.71802 29.9915 2.31005V43.7301L33.1515 48.4101V3.17005H86.2215V106.17H89.3815V33.7801H119.841V106.13H110.501V91.0001C110.503 90.8574 110.476 90.7159 110.422 90.5837C110.368 90.4515 110.289 90.3313 110.189 90.2299C110.088 90.1286 109.969 90.0481 109.837 89.9932C109.705 89.9383 109.564 89.91 109.421 89.9101H97.1715C96.8824 89.9101 96.6051 90.0249 96.4007 90.2293C96.1963 90.4337 96.0815 90.711 96.0815 91.0001V106.15H73.0815V84.7101C73.0815 84.5196 73.044 84.3311 72.9711 84.1552C72.8982 83.9792 72.7914 83.8194 72.6568 83.6847C72.5221 83.5501 72.3623 83.4433 72.1864 83.3704C72.0104 83.2976 71.8219 83.2601 71.6315 83.2601H47.7115C47.5215 83.26 47.3334 83.2976 47.1581 83.3706C46.9827 83.4436 46.8235 83.5506 46.6897 83.6853C46.5558 83.8201 46.45 83.98 46.3782 84.1559C46.3064 84.3318 46.2701 84.5201 46.2715 84.7101V87.0001L46.6915 87.5201C46.7778 87.6218 46.8579 87.7287 46.9315 87.84C47.5871 88.775 47.9901 89.8635 48.1015 91.0001C48.2326 92.0985 48.1164 93.2123 47.7615 94.2601C47.4488 95.1901 46.9407 96.0425 46.2715 96.7601V106.15H30.1015V98.6901H33.1015V106.13H33.1415ZM2.52146 93.8901C-0.00853586 94.1401 -0.558536 92.0001 0.531464 90.2301L10.3115 78.1401L10.0315 77.84H4.79146C2.90146 78.1401 2.19146 75.97 3.35146 74.4501L13.8815 61.4501H10.8015C8.87146 61.4501 8.40146 59.6301 9.63146 57.8701L19.2415 43.2901C19.8915 42.4701 20.5915 41.2901 21.7315 41.2901C22.7315 41.2901 23.3115 42.2901 23.8915 43.0001L34.0915 58.0901C34.361 58.4055 34.5306 58.7939 34.5786 59.206C34.6266 59.6182 34.5509 60.0352 34.3611 60.4041C34.1713 60.7731 33.8759 61.0771 33.5127 61.2777C33.1495 61.4782 32.7348 61.566 32.3215 61.5301H29.5715L39.9915 74.4501C40.2686 74.7122 40.4728 75.0418 40.584 75.4067C40.6953 75.7715 40.7098 76.159 40.6261 76.5311C40.5424 76.9033 40.3633 77.2473 40.1066 77.5293C39.8498 77.8114 39.5241 78.0219 39.1615 78.1401H33.1215L42.2315 89.4201L43.2315 90.6601C43.4316 90.9387 43.5594 91.2628 43.6032 91.6031C43.6471 91.9434 43.6057 92.2892 43.4827 92.6095C43.3597 92.9298 43.1591 93.2145 42.8988 93.4381C42.6385 93.6616 42.3267 93.8169 41.9915 93.8901H25.5315V109.51H17.8215V93.8901H2.52146ZM108.331 106.13H98.2515V92.0601H108.331V106.13ZM105.991 40.0001H113.831C113.891 40.0001 113.951 40.0901 113.951 40.2001V45.3001C113.951 45.3901 113.891 45.4901 113.831 45.4901H105.991C105.931 45.4901 105.871 45.4001 105.871 45.3001V40.2201C105.871 40.1101 105.931 40.0201 105.991 40.0201V40.0001ZM105.991 75.2301H113.831C113.891 75.2301 113.951 75.3201 113.951 75.4101V80.4901C113.951 80.59 113.891 80.6801 113.831 80.6801H105.991C105.931 80.6801 105.871 80.6001 105.871 80.4901V75.4301C105.871 75.3401 105.931 75.2501 105.991 75.2501V75.2301ZM92.7815 75.2301H100.611C100.681 75.2301 100.731 75.3201 100.731 75.4101V80.4901C100.731 80.59 100.731 80.6801 100.611 80.6801H92.7715C92.7015 80.6801 92.6515 80.6001 92.6515 80.4901V75.4301C92.6515 75.3401 92.6515 75.2501 92.7715 75.2501L92.7815 75.2301ZM105.991 63.5101H113.831C113.891 63.5101 113.951 63.5901 113.951 63.7001V68.7801C113.951 68.8801 113.891 68.9701 113.831 68.9701H105.991C105.931 68.9701 105.871 68.8901 105.871 68.7801V63.7001C105.871 63.5801 105.931 63.5101 105.991 63.5101ZM105.991 51.7701H113.831C113.891 51.7701 113.951 51.8501 113.951 51.9601V57.0001C113.951 57.0901 113.891 57.1901 113.831 57.1901H105.991C105.931 57.1901 105.871 57.1001 105.871 57.0001V52.0001C105.871 51.8901 105.931 51.8101 105.991 51.8101V51.7701ZM92.7715 40.0001H100.601C100.671 40.0001 100.721 40.0901 100.721 40.2001V45.3001C100.721 45.3901 100.721 45.4901 100.601 45.4901H92.7715C92.7015 45.4901 92.6515 45.4001 92.6515 45.3001V40.2201C92.6515 40.1101 92.6515 40.0201 92.7715 40.0201V40.0001ZM92.7715 63.4901H100.601C100.671 63.4901 100.721 63.5701 100.721 63.6801V68.7601C100.721 68.8601 100.721 68.9501 100.601 68.9501H92.7715C92.7015 68.9501 92.6515 68.8701 92.6515 68.7601V63.7001C92.6515 63.5801 92.6515 63.5101 92.7715 63.5101V63.4901ZM92.7715 51.7501H100.601C100.671 51.7501 100.721 51.8301 100.721 51.9401V57.0001C100.721 57.0901 100.721 57.1901 100.601 57.1901H92.7715C92.7015 57.1901 92.6515 57.1001 92.6515 57.0001V52.0001C92.6515 51.8901 92.6515 51.8101 92.7715 51.8101V51.7501ZM70.1915 106.13H49.1915V86.1301H70.1915V106.13ZM40.7715 11.1301H49.2915C49.323 11.1301 49.3542 11.1363 49.3833 11.1483C49.4124 11.1604 49.4389 11.1781 49.4612 11.2003C49.4835 11.2226 49.5011 11.2491 49.5132 11.2782C49.5253 11.3073 49.5315 11.3385 49.5315 11.3701V19.9001C49.5315 19.9316 49.5253 19.9628 49.5132 19.9919C49.5011 20.021 49.4835 20.0475 49.4612 20.0698C49.4389 20.092 49.4124 20.1097 49.3833 20.1218C49.3542 20.1338 49.323 20.1401 49.2915 20.1401H40.7715C40.7069 20.1401 40.6447 20.1151 40.5981 20.0704C40.5515 20.0257 40.524 19.9646 40.5215 19.9001V11.3801C40.524 11.3155 40.5515 11.2544 40.5981 11.2097C40.6447 11.165 40.7069 11.14 40.7715 11.1401V11.1301ZM70.0615 11.1301H78.5915C78.6551 11.1301 78.7162 11.1553 78.7612 11.2003C78.8062 11.2454 78.8315 11.3064 78.8315 11.3701V19.9001C78.8315 19.9637 78.8062 20.0247 78.7612 20.0698C78.7162 20.1148 78.6551 20.1401 78.5915 20.1401H70.0615C69.9978 20.1401 69.9368 20.1148 69.8918 20.0698C69.8467 20.0247 69.8215 19.9637 69.8215 19.9001V11.3801C69.8215 11.3164 69.8467 11.2554 69.8918 11.2103C69.9368 11.1653 69.9978 11.1401 70.0615 11.1401V11.1301ZM55.4115 11.1301H63.9915C64.0551 11.1301 64.1162 11.1553 64.1612 11.2003C64.2062 11.2454 64.2315 11.3064 64.2315 11.3701V19.9001C64.2315 19.9637 64.2062 20.0247 64.1612 20.0698C64.1162 20.1148 64.0551 20.1401 63.9915 20.1401H55.4115C55.3478 20.1401 55.2868 20.1148 55.2418 20.0698C55.1967 20.0247 55.1715 19.9637 55.1715 19.9001V11.3801C55.1715 11.3164 55.1967 11.2554 55.2418 11.2103C55.2868 11.1653 55.3478 11.1401 55.4115 11.1401V11.1301ZM40.7715 29.6001H49.2915C49.323 29.6001 49.3542 29.6063 49.3833 29.6183C49.4124 29.6304 49.4389 29.6481 49.4612 29.6703C49.4835 29.6926 49.5011 29.7191 49.5132 29.7482C49.5253 29.7773 49.5315 29.8085 49.5315 29.8401V38.3701C49.5315 38.4016 49.5253 38.4328 49.5132 38.4619C49.5011 38.491 49.4835 38.5175 49.4612 38.5398C49.4389 38.562 49.4124 38.5797 49.3833 38.5918C49.3542 38.6038 49.323 38.6101 49.2915 38.6101H40.7715C40.7069 38.6101 40.6447 38.5851 40.5981 38.5404C40.5515 38.4957 40.524 38.4346 40.5215 38.3701V29.8401C40.524 29.7755 40.5515 29.7144 40.5981 29.6697C40.6447 29.625 40.7069 29.6 40.7715 29.6001ZM70.0615 29.6001H78.5915C78.6551 29.6001 78.7162 29.6253 78.7612 29.6703C78.8062 29.7154 78.8315 29.7764 78.8315 29.8401V38.3701C78.8315 38.4337 78.8062 38.4948 78.7612 38.5398C78.7162 38.5848 78.6551 38.6101 78.5915 38.6101H70.0615C69.9978 38.6101 69.9368 38.5848 69.8918 38.5398C69.8467 38.4948 69.8215 38.4337 69.8215 38.3701V29.8401C69.8215 29.7764 69.8467 29.7154 69.8918 29.6703C69.9368 29.6253 69.9978 29.6001 70.0615 29.6001ZM55.4115 29.6001H63.9915C64.0551 29.6001 64.1162 29.6253 64.1612 29.6703C64.2062 29.7154 64.2315 29.7764 64.2315 29.8401V38.3701C64.2315 38.4337 64.2062 38.4948 64.1612 38.5398C64.1162 38.5848 64.0551 38.6101 63.9915 38.6101H55.4115C55.3478 38.6101 55.2868 38.5848 55.2418 38.5398C55.1967 38.4948 55.1715 38.4337 55.1715 38.3701V29.8401C55.1715 29.7764 55.1967 29.7154 55.2418 29.6703C55.2868 29.6253 55.3478 29.6001 55.4115 29.6001ZM40.7715 66.5301H49.2915C49.3551 66.5301 49.4162 66.5553 49.4612 66.6003C49.5062 66.6454 49.5315 66.7064 49.5315 66.7701V75.2901C49.5315 75.3547 49.5066 75.4168 49.4618 75.4634C49.4171 75.51 49.356 75.5375 49.2915 75.5401H45.2315C45.2118 75.2443 45.1717 74.9503 45.1115 74.6601C44.8639 73.3875 44.2765 72.2057 43.4115 71.2401L40.5215 67.6701V66.7701C40.524 66.7055 40.5515 66.6445 40.5981 66.5997C40.6447 66.555 40.7069 66.53 40.7715 66.5301ZM70.0615 66.5301H78.5915C78.6551 66.5301 78.7162 66.5553 78.7612 66.6003C78.8062 66.6454 78.8315 66.7064 78.8315 66.7701V75.2901C78.8315 75.3547 78.8066 75.4168 78.7618 75.4634C78.7171 75.51 78.656 75.5375 78.5915 75.5401H70.0615C69.9969 75.5375 69.9359 75.51 69.8911 75.4634C69.8464 75.4168 69.8214 75.3547 69.8215 75.2901V66.7701C69.8215 66.7064 69.8467 66.6454 69.8918 66.6003C69.9368 66.5553 69.9978 66.5301 70.0615 66.5301ZM55.4115 66.5301H63.9915C64.0551 66.5301 64.1162 66.5553 64.1612 66.6003C64.2062 66.6454 64.2315 66.7064 64.2315 66.7701V75.2901C64.2315 75.3547 64.2066 75.4168 64.1618 75.4634C64.1171 75.51 64.056 75.5375 63.9915 75.5401H55.4115C55.3469 75.5375 55.2859 75.51 55.2411 75.4634C55.1964 75.4168 55.1714 75.3547 55.1715 75.2901V66.7701C55.1715 66.7064 55.1967 66.6454 55.2418 66.6003C55.2868 66.5553 55.3478 66.5301 55.4115 66.5301ZM40.7715 48.0701H49.2915C49.323 48.0701 49.3542 48.0763 49.3833 48.0883C49.4124 48.1004 49.4389 48.1181 49.4612 48.1403C49.4835 48.1626 49.5011 48.1891 49.5132 48.2182C49.5253 48.2473 49.5315 48.2785 49.5315 48.3101V56.8301C49.5315 56.8616 49.5253 56.8928 49.5132 56.9219C49.5011 56.951 49.4835 56.9775 49.4612 56.9998C49.4389 57.022 49.4124 57.0397 49.3833 57.0518C49.3542 57.0638 49.323 57.0701 49.2915 57.0701H40.7715C40.7069 57.0701 40.6447 57.0451 40.5981 57.0004C40.5515 56.9557 40.524 56.8946 40.5215 56.8301V48.3101C40.524 48.2455 40.5515 48.1844 40.5981 48.1397C40.6447 48.095 40.7069 48.07 40.7715 48.0701ZM70.0615 48.0701H78.5915C78.6551 48.0701 78.7162 48.0953 78.7612 48.1403C78.8062 48.1854 78.8315 48.2464 78.8315 48.3101V56.8301C78.8315 56.8937 78.8062 56.9548 78.7612 56.9998C78.7162 57.0448 78.6551 57.0701 78.5915 57.0701H70.0615C69.9978 57.0701 69.9368 57.0448 69.8918 56.9998C69.8467 56.9548 69.8215 56.8937 69.8215 56.8301V48.3101C69.8215 48.2464 69.8467 48.1854 69.8918 48.1403C69.9368 48.0953 69.9978 48.0701 70.0615 48.0701ZM55.4115 48.0701H63.9915C64.0551 48.0701 64.1162 48.0953 64.1612 48.1403C64.2062 48.1854 64.2315 48.2464 64.2315 48.3101V56.8301C64.2315 56.8937 64.2062 56.9548 64.1612 56.9998C64.1162 57.0448 64.0551 57.0701 63.9915 57.0701H55.4115C55.3478 57.0701 55.2868 57.0448 55.2418 56.9998C55.1967 56.9548 55.1715 56.8937 55.1715 56.8301V48.3101C55.1715 48.2464 55.1967 48.1854 55.2418 48.1403C55.2868 48.0953 55.3478 48.0701 55.4115 48.0701Z" fill="#194051"/>
</svg>
