<svg width="123" height="81" viewBox="0 0 123 81" fill="none" xmlns="http://www.w3.org/2000/svg">
<path fill-rule="evenodd" clip-rule="evenodd" d="M92.5942 48.09C93.1742 53.05 88.0742 57.33 83.6042 55.97C82.9842 57.06 82.4942 58.43 82.1242 60.09C81.2742 63.95 81.5242 62.77 81.8942 66.5C82.3942 71.48 81.8542 74.87 78.6542 76.32V78.23H13.8742V76.32C11.3842 75.43 10.3042 72.99 10.6842 68.96C11.5142 61.39 10.9942 59.02 9.09418 56.17C5.75418 56.29 3.34418 55.49 1.83418 53.81C-1.23582 50.4 -0.305825 45.39 3.53417 42.98C4.32417 42.48 5.25418 42.11 6.33418 41.88C8.47418 41.43 10.0042 41.42 12.0142 42.35C16.2242 44.3 19.3142 49.23 21.2942 55.22L42.8942 55.8C44.3742 56 45.3142 56.65 45.9342 57.55C46.5242 56.68 47.3642 56.02 48.6542 55.72C55.3742 55.43 60.1942 56.32 65.1042 56.32H70.8242C71.9942 56.33 72.6042 55.8 72.8042 54.86C74.1942 50.6 76.6342 47.21 79.6242 44.27C81.6042 42.33 81.9642 41.61 84.8242 41.7C88.1342 41.81 91.7542 44.1 92.5942 48.09ZM97.5242 0H117.124L122.874 22.68H91.8142L97.5242 0ZM109.234 26.1V76.34H116.824C117.874 76.34 118.724 77.19 118.724 78.24C118.724 79.29 117.874 80.14 116.824 80.14H97.8642C96.8142 80.14 95.9642 79.29 95.9642 78.24C95.9642 77.19 96.8142 76.34 97.8642 76.34H105.454V26.1H109.234ZM12.9042 40.58H12.9142C15.0842 35.73 18.4942 34.51 23.1342 36.14L28.1142 53.24H22.7342L21.1542 50.01L19.4142 46.45C18.5942 45.05 17.6542 43.87 16.5742 42.9C15.4742 41.92 14.2542 41.15 12.9042 40.58ZM25.2242 36.25C25.2842 36.22 25.3442 36.17 25.3742 36.09C27.2042 31.86 32.2642 30.67 36.4042 32.48C36.4042 32.47 36.4142 32.46 36.4142 32.46L37.5442 54.25H30.3842L25.2242 36.25ZM38.6242 32.03C39.9642 26.46 52.6642 27.6 53.8242 31.44C53.9942 31.43 52.5142 52 52.4042 54.29H50.5142C49.2142 54.29 48.9942 54.27 47.7542 54.66C47.1442 54.85 46.5342 55.04 45.9242 55.23L44.3142 54.63C43.2442 54.23 43.1142 54.29 41.9742 54.29H39.5942L38.6742 32.04L38.6242 32.03ZM55.4842 32.96C55.5242 32.96 55.5742 32.95 55.6142 32.93C60.2142 30.48 66.6042 32.26 67.2242 35.46L66.9142 35.58L61.8742 54.25H54.4242L55.4842 32.96ZM68.7542 36.93C68.8242 36.94 68.8942 36.92 68.9642 36.86C72.5342 34.06 77.7742 35.24 80.1742 41.09H80.1242C75.3942 45.11 72.0142 49.47 70.7842 54.35H63.9342L68.7542 36.93Z" fill="#E3AC4A"/>
</svg>
