<svg width="60" height="60" viewBox="0 0 60 60" fill="none" xmlns="http://www.w3.org/2000/svg">
<path fill-rule="evenodd" clip-rule="evenodd" d="M19.8026 29.3572V21.524C18.981 21.8528 18.2128 21.8602 17.5744 21.6331C17.076 21.458 16.6552 21.1439 16.3463 20.738C16.0376 20.3327 15.8412 19.8393 15.7812 19.2947C15.6901 18.4508 15.9321 17.4966 16.6235 16.6015C16.6586 16.5576 16.6974 16.5138 16.7428 16.4773L36.7634 0.20196C37.0229 -0.046524 37.4232 -0.0725197 37.7105 0.161929L57.7769 16.4082C57.8087 16.4334 57.8369 16.4594 57.8646 16.4924C58.7946 17.5335 59.0264 18.6884 58.8016 19.6643C58.6922 20.1362 58.4729 20.5727 58.1632 20.9355C57.8548 21.2973 57.4639 21.5726 57.0267 21.736C56.3244 21.9988 55.4895 21.9918 54.6438 21.5749V33.161C54.0504 33.2196 53.4406 33.3407 52.8185 33.5313C52.772 33.5445 52.725 33.5592 52.6788 33.5747V20.6763C52.6788 20.3071 38.9145 8.97567 37.3948 7.74436C35.7847 9.01949 21.7673 20.2597 21.7673 20.7345V29.5719C21.5858 29.5276 21.4038 29.4862 21.2212 29.4477C21.0169 29.4045 20.8094 29.3808 20.601 29.3766L19.8026 29.3572ZM0 30.6056H9.37642L8.8431 54.6213H0V30.6056ZM11.4786 52.6819L11.9244 32.748L20.5335 32.9572C24.1681 33.7273 27.7716 35.8763 31.3681 38.3583L38.0549 38.5206C41.0774 38.7838 42.5912 42.017 39.604 44.0449C37.2181 45.7784 34.1274 45.6023 30.9637 45.2292C28.7799 45.0638 28.6155 48.1227 30.8974 48.1887C31.6872 48.2714 32.5538 48.0995 33.3059 48.1169C37.2637 48.2088 40.5414 47.5001 42.609 44.2925L43.6665 41.8792L53.728 36.9846C58.7438 35.3985 62.1596 40.9072 58.4083 44.5882C51.0823 49.8727 43.5923 54.1857 35.9549 57.6305C30.3885 60.9743 24.9026 60.7231 19.4891 57.231L11.4786 52.6819ZM37.9879 19.4216V25.9948H43.6511V25.9765C43.6511 24.1637 42.9389 22.5162 41.7916 21.3218C40.7912 20.2795 39.4613 19.582 37.9879 19.4216ZM37.9879 27.3836V33.0911H43.6511V27.3836H37.9879ZM36.6545 33.0884V27.3836H30.992V33.0911H36.6545V33.0884ZM36.6545 25.9948V19.4216C35.1779 19.5858 33.8512 20.2795 32.8512 21.3218C31.704 22.5162 30.9913 24.1637 30.9913 25.9765V25.9948H36.6545ZM37.3213 17.9958C39.4304 17.9958 41.3458 18.8949 42.7317 20.3381C44.1212 21.7853 44.9807 23.7809 44.9807 25.9727V34.4723H30.3372C30.2052 34.4373 30.0786 34.3832 29.961 34.3115C29.8585 34.2487 29.7576 34.1711 29.6583 34.0833V25.9727C29.6583 23.7767 30.5216 21.7814 31.9075 20.3381C33.2967 18.8949 35.2129 17.9958 37.3213 17.9958ZM54.6859 1.87764V10.0283L48.6614 5.88805V1.87764H54.6859Z" fill="#E3AC4A"/>
</svg>
